<?xml version="1.0" standalone="no"?><!DOCTYPE svg PUBLIC "-//W3C//DTD SVG 1.1//EN" "http://www.w3.org/Graphics/SVG/1.1/DTD/svg11.dtd"><svg t="1721101661170" class="icon" viewBox="0 0 1024 1024" version="1.1" xmlns="http://www.w3.org/2000/svg" p-id="11823" xmlns:xlink="http://www.w3.org/1999/xlink" width="200" height="200"><path d="M210.816 682.666667v85.333333c0 44.970667 34.133333 81.834667 77.44 85.077333l6.229333 0.256h125.482667v85.333334H294.485333c-92.416 0-167.338667-76.373333-167.338666-170.666667v-85.333333h83.669333z m543.786667-213.333334L938.666667 938.666667h-90.154667l-50.218667-128H627.2l-50.133333 128h-90.112l183.978666-469.333334h83.669334z m-41.813334 123.093334L660.608 725.333333h104.234667l-52.053334-132.906666zM336.298667 128v85.333333h167.338666v298.666667H336.298667v128h-83.626667v-128H85.333333V213.333333h167.338667V128h83.626667z m376.490666 42.666667c92.416 0 167.296 76.373333 167.296 170.666666v85.333334h-83.626666V341.333333c0-47.146667-37.461333-85.333333-83.669334-85.333333h-125.482666V170.666667h125.44zM252.672 298.666667H168.96v128h83.626667V298.666667z m167.296 0h-83.626667v128h83.626667V298.666667z" fill="#262626" p-id="11824"></path></svg>