<?xml version="1.0" standalone="no"?><!DOCTYPE svg PUBLIC "-//W3C//DTD SVG 1.1//EN" "http://www.w3.org/Graphics/SVG/1.1/DTD/svg11.dtd"><svg t="1721487344540" class="icon" viewBox="0 0 1024 1024" version="1.1" xmlns="http://www.w3.org/2000/svg" p-id="72752" xmlns:xlink="http://www.w3.org/1999/xlink" width="128" height="128"><path d="M885.589333 985.770667H138.410667a100.181333 100.181333 0 0 1-100.181334-100.181334V138.410667a100.181333 100.181333 0 0 1 100.181334-100.181334h747.178666a100.181333 100.181333 0 0 1 100.181334 100.181334v747.178666a100.181333 100.181333 0 0 1-100.181334 100.181334zM138.410667 89.429333a49.152 49.152 0 0 0-48.981334 48.981334v747.178666a49.152 49.152 0 0 0 48.981334 48.981334h747.178666a49.152 49.152 0 0 0 48.981334-48.981334V138.410667a49.152 49.152 0 0 0-48.981334-48.981334z" fill="#333333" p-id="72753"></path><path d="M960.170667 363.349333H63.829333a25.6 25.6 0 0 1 0-51.2h896.341334a25.6 25.6 0 0 1 0 51.2z" fill="#333333" p-id="72754"></path><path d="M337.749333 985.770667a25.6 25.6 0 0 1-25.6-25.6V337.749333a25.6 25.6 0 0 1 51.2 0v622.421334a25.6 25.6 0 0 1-25.6 25.6z" fill="#333333" p-id="72755"></path></svg>